<svg width="25" height="25" viewBox="0 0 25 25" fill="none" xmlns="http://www.w3.org/2000/svg">
<path d="M12.4998 4.1665C13.6049 4.1665 14.6647 4.60549 15.4461 5.38689C16.2275 6.16829 16.6665 7.2281 16.6665 8.33317C16.6665 9.43824 16.2275 10.498 15.4461 11.2794C14.6647 12.0609 13.6049 12.4998 12.4998 12.4998C11.3948 12.4998 10.335 12.0609 9.55356 11.2794C8.77216 10.498 8.33317 9.43824 8.33317 8.33317C8.33317 7.2281 8.77216 6.16829 9.55356 5.38689C10.335 4.60549 11.3948 4.1665 12.4998 4.1665ZM12.4998 6.24984C11.9473 6.24984 11.4174 6.46933 11.0267 6.86003C10.636 7.25073 10.4165 7.78064 10.4165 8.33317C10.4165 8.8857 10.636 9.41561 11.0267 9.80631C11.4174 10.197 11.9473 10.4165 12.4998 10.4165C13.0524 10.4165 13.5823 10.197 13.973 9.80631C14.3637 9.41561 14.5832 8.8857 14.5832 8.33317C14.5832 7.78064 14.3637 7.25073 13.973 6.86003C13.5823 6.46933 13.0524 6.24984 12.4998 6.24984ZM12.4998 13.5415C15.2811 13.5415 20.8332 14.9269 20.8332 17.7082V20.8332H4.1665V17.7082C4.1665 14.9269 9.71859 13.5415 12.4998 13.5415ZM12.4998 15.5207C9.40609 15.5207 6.14567 17.0415 6.14567 17.7082V18.854H18.854V17.7082C18.854 17.0415 15.5936 15.5207 12.4998 15.5207Z" fill="black"/>
</svg>
