<svg width="25" height="25" viewBox="0 0 25 25" fill="none" xmlns="http://www.w3.org/2000/svg">
<path d="M20.8333 16.1458C19.5833 16.1458 18.2292 15.9375 17.0833 15.5208C16.9792 15.5208 16.875 15.5208 16.7708 15.5208C16.4583 15.5208 16.25 15.625 16.0417 15.8333L13.75 18.125C10.8333 16.5625 8.33333 14.1667 6.875 11.25L9.16667 8.95833C9.47917 8.64583 9.58333 8.22917 9.375 7.91667C9.0625 6.77083 8.85417 5.41667 8.85417 4.16667C8.85417 3.64583 8.33333 3.125 7.8125 3.125H4.16667C3.64583 3.125 3.125 3.64583 3.125 4.16667C3.125 13.9583 11.0417 21.875 20.8333 21.875C21.3542 21.875 21.875 21.3542 21.875 20.8333V17.1875C21.875 16.6667 21.3542 16.1458 20.8333 16.1458ZM5.20833 5.20833H6.77083C6.875 6.14583 7.08333 7.08333 7.29167 7.91667L6.04167 9.16667C5.625 7.91667 5.3125 6.5625 5.20833 5.20833ZM19.7917 19.7917C18.4375 19.6875 17.0833 19.375 15.8333 18.9583L17.0833 17.7083C17.9167 17.9167 18.8542 18.125 19.7917 18.125V19.7917Z" fill="black"/>
</svg>
